<svg width="88" height="88" viewBox="0 0 88 88" fill="none" xmlns="http://www.w3.org/2000/svg">
<path d="M44 88C68.3005 88 88 68.3005 88 44C88 19.6995 68.3005 0 44 0C19.6995 0 0 19.6995 0 44C0 68.3005 19.6995 88 44 88Z" fill="#2F3574"/>
<path d="M51.4658 33.9494C50.8453 32.0538 49.5262 30.4708 47.8113 29.5133C49.5262 28.5557 50.8502 26.9776 51.4658 25.0771C51.2704 25.0527 51.07 25.0331 50.8697 25.0331C50.2883 25.0331 49.7314 25.1504 49.2233 25.3507C48.6663 26.4255 47.7869 27.305 46.7121 27.8619C46.5069 28.3749 46.3945 28.927 46.3945 29.5084C46.3945 29.8992 46.3701 30.2803 46.3212 30.6565L46.5899 31.0913C47.7185 31.6483 48.6468 32.557 49.2233 33.6709C49.7363 33.8761 50.2932 33.9836 50.8697 33.9836C51.07 33.9934 51.2704 33.9787 51.4658 33.9494Z" fill="white"/>
<path d="M41.2983 31.1651C41.5035 30.6521 41.6158 30.1 41.6158 29.5186C41.6158 29.1278 41.6403 28.7467 41.6891 28.3705L41.4204 27.9357C40.2918 27.3787 39.3636 26.47 38.7871 25.3561C38.2741 25.1509 37.7171 25.0434 37.1406 25.0434C36.9354 25.0434 36.74 25.0629 36.5446 25.0873C37.165 26.983 38.4842 28.5659 40.199 29.5235C38.4842 30.4811 37.1602 32.0591 36.5446 33.9596C36.74 33.9841 36.9403 34.0036 37.1406 34.0036C37.722 34.0036 38.279 33.8864 38.7871 33.6861C39.344 32.6014 40.2234 31.722 41.2983 31.1651Z" fill="white"/>
<path d="M50.8644 38.7669C50.3759 38.7669 49.8922 38.7278 49.4183 38.6545C48.5291 40.77 46.4332 42.2601 44.0001 42.2601C41.5622 42.2601 39.4711 40.77 38.582 38.6545C38.1129 38.7278 37.6293 38.7669 37.1358 38.7669C36.9257 38.7669 36.7205 38.7571 36.5105 38.7424C37.5169 41.923 40.4922 44.2339 44.0001 44.2339C47.508 44.2339 50.4834 41.923 51.4898 38.7424C51.2846 38.7571 51.0745 38.7669 50.8644 38.7669Z" fill="white"/>
<path d="M37.1358 20.2655C37.6244 20.2655 38.108 20.3046 38.582 20.3779C39.4711 18.2624 41.5671 16.7723 44.0001 16.7723C46.4381 16.7723 48.5291 18.2624 49.4183 20.3779C49.8873 20.3046 50.371 20.2655 50.8644 20.2655C51.0745 20.2655 51.2797 20.2753 51.4898 20.2899C50.4834 17.1094 47.508 14.7985 44.0001 14.7985C40.4922 14.7985 37.5169 17.1094 36.5105 20.2899C36.7205 20.2753 36.9306 20.2655 37.1358 20.2655Z" fill="white"/>
<path d="M50.8694 21.6673C46.5407 21.6673 43.0181 25.1898 43.0181 29.5185C43.0181 32.7577 40.3799 35.3959 37.1407 35.3959C33.9016 35.3959 31.2633 32.7577 31.2633 29.5185C31.2633 26.2793 33.9016 23.6411 37.1407 23.6411C39.2562 23.6411 41.1128 24.7648 42.1485 26.4454C42.3977 25.737 42.7299 25.0726 43.1354 24.457C41.6941 22.7519 39.5445 21.6673 37.1407 21.6673C32.8121 21.6673 29.2895 25.1898 29.2895 29.5185C29.2895 33.8472 32.8121 37.3697 37.1407 37.3697C41.4694 37.3697 44.9919 33.8472 44.9919 29.5185C44.9919 26.2793 47.6302 23.6411 50.8694 23.6411C54.1085 23.6411 56.7468 26.2793 56.7468 29.5185C56.7468 32.7577 54.1085 35.3959 50.8694 35.3959C48.7539 35.3959 46.8973 34.2722 45.8616 32.5916C45.6124 33.3 45.2802 33.9644 44.8747 34.58C46.3159 36.2851 48.4656 37.3697 50.8694 37.3697C55.198 37.3697 58.7206 33.8472 58.7206 29.5185C58.7206 25.1898 55.198 21.6673 50.8694 21.6673Z" fill="white"/>
<path d="M26.5919 66.0968L26.5284 66.0382L21.7552 61.5776V66.0821H20.5631V55.9102H21.7552V60.063L26.1864 55.9102H27.3981V56.2913L27.3297 56.3597L22.5955 60.7959L27.8427 65.7304V66.0968H26.5919Z" fill="white"/>
<path d="M27.2428 56.0619V56.2231L27.2232 56.2427L22.3718 60.7912L27.6923 65.7892V65.9407H26.6565L26.637 65.9211L21.6048 61.2163V65.9211H20.7205V56.0522H21.6048V60.4101L26.251 56.0522H27.2428V56.0619ZM27.5506 55.7541H27.2428H26.2461H26.124L26.036 55.8372L21.9126 59.7066V56.0619V55.7541H21.6048H20.7205H20.4127V56.0619V65.9309V66.2387H20.7205H21.6048H21.9126V65.9309V61.9344L26.422 66.1508L26.4415 66.1654L26.5295 66.2485H26.6516H27.6874H27.9952V65.9407V65.7892V65.6573L27.8975 65.5645L22.8164 60.7912L27.4284 56.4674L27.448 56.4479L27.5457 56.3551V56.2183V56.057V55.7541H27.5506Z" fill="white"/>
<path d="M37.2439 66.0968L37.1755 66.0186L30.9902 58.441V66.0968H29.803V55.9102H30.4479L30.5115 55.9884L36.682 63.5758V55.9102H37.8594V66.0968H37.2439Z" fill="white"/>
<path d="M37.7029 56.0619V65.9407H37.3121L37.2925 65.9162L30.8337 58.0064V65.9407H29.9494V56.0619H30.3647L30.3842 56.0863L36.8284 64.0108V56.0619H37.7029ZM38.0156 55.7541H37.7078H36.8382H36.5304V56.0619V63.1412L30.6334 55.8909L30.6139 55.8665L30.521 55.7541H30.3745H29.9592H29.6514V56.0619V65.9407V66.2485H29.9592H30.8435H31.1513V65.9407V58.8712L37.0629 66.1117L37.0824 66.1361L37.1753 66.2485H37.3218H37.7127H38.0205V65.9407V56.0619V55.7541H38.0156Z" fill="white"/>
<path d="M42.1772 55.9102H40.9998V66.1017H42.1772V55.9102Z" fill="white"/>
<path d="M42.0218 56.0619V65.9407H41.1521V56.0619H42.0218ZM42.3296 55.7541H42.0218H41.1521H40.8443V56.0619V65.9407V66.2485H41.1521H42.0218H42.3296V65.9407V56.0619V55.7541Z" fill="white"/>
<path d="M52.3501 66.0968V57.0291H48.7591V66.0968H47.567V57.0291H44.0396V55.92H57.0647V57.0291H53.5422V66.0968H52.3501Z" fill="white"/>
<path d="M56.9131 56.0767V56.8779H53.3905V65.9457H52.5062V56.8779H48.6026V65.9457H47.7183V56.8779H44.1958V56.0767H56.9131ZM57.2209 55.7689H56.9131H44.1958H43.888V56.0767V56.8779V57.1857H44.1958H47.4105V65.9457V66.2535H47.7183H48.6026H48.9104V65.9457V57.1857H52.1984V65.9457V66.2535H52.5062H53.3905H53.6983V65.9457V57.1857H56.9131H57.2209V56.8779V56.0767V55.7689Z" fill="white"/>
<path d="M62.3018 66.263C58.7744 66.263 57.167 63.5271 57.167 60.9865C57.167 58.3825 58.7548 55.754 62.3018 55.754C63.787 55.754 65.0573 56.2377 65.9709 57.1611C66.9236 58.1187 67.4464 59.4915 67.4366 61.0207C67.4268 63.5466 65.8146 66.263 62.3018 66.263ZM62.3018 56.8924C61.1439 56.8924 60.1668 57.2637 59.473 57.9623C58.7353 58.7001 58.3347 59.7847 58.3444 61.0061C58.3591 62.9945 59.6001 65.1344 62.3018 65.1344C65.0329 65.1344 66.2738 62.9945 66.2738 61.0061C66.2738 58.9541 65.0475 56.8924 62.3018 56.8924Z" fill="white"/>
<path d="M62.302 55.9106C63.7482 55.9106 64.9794 56.3796 65.8637 57.2688C66.787 58.1971 67.2903 59.5309 67.2854 61.0161C67.2707 63.4687 65.7073 66.1118 62.302 66.1118C58.8772 66.1118 57.3187 63.4589 57.3187 60.9917C57.3187 58.4609 58.8625 55.9106 62.302 55.9106ZM62.302 65.2861C65.1357 65.2861 66.4304 63.0681 66.4304 61.0063C66.4304 58.8811 65.1552 56.7412 62.302 56.7412C61.1051 56.7412 60.0888 57.1271 59.3609 57.8551C58.5987 58.6221 58.1786 59.7458 58.1883 61.0063C58.203 63.0632 59.4977 65.2861 62.302 65.2861ZM62.302 55.6028C60.6263 55.6028 59.2387 56.1891 58.286 57.303C57.4653 58.2655 57.0109 59.5748 57.0109 60.9917C57.0109 62.3841 57.4653 63.6934 58.2909 64.6754C59.2534 65.8187 60.636 66.4196 62.302 66.4196C63.9583 66.4196 65.3409 65.8187 66.2985 64.6852C67.1242 63.7081 67.5834 62.4085 67.5932 61.021C67.6029 59.4478 67.0655 58.0408 66.0835 57.0539C65.1406 56.1012 63.8312 55.6028 62.302 55.6028ZM62.302 64.9735C59.7029 64.9735 58.5108 62.9117 58.4961 61.0014C58.4912 59.8191 58.8723 58.7785 59.5807 58.0701C60.2452 57.4007 61.1881 57.0441 62.302 57.0441C64.9403 57.0441 66.1226 59.0325 66.1226 61.0014C66.1226 62.9166 64.9256 64.9735 62.302 64.9735Z" fill="white"/>
<path d="M71.4373 57.0743H71.0367L70.5286 56.0923H70.128V57.0743H69.7762V54.7438H70.6361C70.8217 54.7438 70.9781 54.8122 71.11 54.9442C71.2419 55.0761 71.3103 55.2324 71.3103 55.4229C71.3103 55.5597 71.2712 55.6868 71.193 55.7991C71.1197 55.9115 71.022 55.9897 70.8999 56.0434L71.4373 57.0743ZM70.6361 55.7405C70.724 55.7405 70.7973 55.7112 70.8608 55.6477C70.9243 55.5842 70.9536 55.5109 70.9536 55.4229C70.9536 55.335 70.9243 55.2568 70.8608 55.1933C70.7973 55.1298 70.724 55.1005 70.6361 55.1005H70.128V55.7405H70.6361Z" fill="white"/>
<path d="M70.4652 58.0163C69.3024 58.0163 68.3595 57.0733 68.3595 55.9106C68.3595 54.7478 69.3024 53.8048 70.4652 53.8048C71.628 53.8048 72.5709 54.7478 72.5709 55.9106C72.5709 57.0684 71.628 58.0163 70.4652 58.0163ZM70.4652 54.0784C69.4587 54.0784 68.638 54.8992 68.638 55.9057C68.638 56.9121 69.4587 57.7329 70.4652 57.7329C71.4716 57.7329 72.2924 56.9121 72.2924 55.9057C72.2924 54.8992 71.4765 54.0784 70.4652 54.0784Z" fill="white"/>
<path d="M32.2703 70.592H30.8388V70.3184H34.0047V70.592H32.5732V74.2708H32.2703V70.592Z" fill="white"/>
<path d="M32.7295 74.4278H32.1188V70.744H30.6873V70.1675H34.161V70.744H32.7295V74.4278Z" fill="white"/>
<path d="M35.1674 72.1406H37.4831V72.4191H35.1674V73.9776H37.6639V74.2707H34.8645V70.3133H37.5955V70.6016H35.1674V72.1406Z" fill="white"/>
<path d="M37.8204 74.4275H34.7131V70.1624H37.752V70.7584H35.319V71.9896H37.6396V72.571H35.319V73.8266H37.8204V74.4275Z" fill="white"/>
<path d="M41.2746 70.3237H41.602V70.3286L40.2584 72.2437L41.7094 74.2664V74.2713H41.3479L40.0727 72.4636L38.7976 74.2713H38.4361V74.2664L39.8871 72.2437L38.5436 70.3286V70.3237H38.8758L40.0727 72.0141L41.2746 70.3237Z" fill="white"/>
<path d="M41.7097 74.4276H41.27L40.0681 72.7274L38.8712 74.4276H38.28V74.2224L38.3044 74.1784L39.6968 72.2437L38.3875 70.3774V70.1722L38.9493 70.1673L40.0681 71.7454L41.1967 70.1673H41.7537V70.3676L41.7244 70.4165L40.4443 72.2437L41.8612 74.2175V74.4178L41.7097 74.4276Z" fill="white"/>
<path d="M43.6832 70.5924H42.2517V70.3188H45.4176V70.5924H43.9861V74.2713H43.6832V70.5924Z" fill="white"/>
<path d="M44.1424 74.4276H43.5317V70.7438H42.1002V70.1673H45.569V70.7438H44.1424V74.4276Z" fill="white"/>
<path d="M46.2823 74.2707V70.3133H46.5803V74.2707H46.2823Z" fill="white"/>
<path d="M46.737 70.1624H46.1312V74.4227H46.737V70.1624Z" fill="white"/>
<path d="M48.041 70.3133V73.9825H50.2689V74.2707H47.7381V70.3133H48.041Z" fill="white"/>
<path d="M50.4204 74.4275H47.5868V70.1624H48.1975V73.8315H50.4204V74.4275Z" fill="white"/>
<path d="M51.4316 72.1406H53.7474V72.4191H51.4316V73.9776H53.9281V74.2707H51.1287V70.3133H53.8597V70.6016H51.4316V72.1406Z" fill="white"/>
<path d="M54.0801 74.4275H50.9777V70.1624H54.0117V70.7584H51.5835V71.9896H53.8993V72.571H51.5835V73.8266H54.0801V74.4275Z" fill="white"/>
<path d="M57.06 72.5075C56.8939 72.3218 56.5959 72.1606 56.161 72.0043C55.9168 71.9163 55.736 71.8381 55.6187 71.7649C55.5113 71.6965 55.4331 71.6281 55.3891 71.5499C55.3451 71.4717 55.3256 71.374 55.3256 71.2519C55.3256 71.0906 55.3842 70.9685 55.5015 70.8757C55.6236 70.7828 55.8044 70.734 56.0291 70.734C56.3272 70.734 56.6398 70.8024 56.9574 70.9343L57.0405 70.9685L57.231 70.4311L57.2408 70.4115L57.1675 70.3822C56.8255 70.2308 56.4444 70.1575 56.0389 70.1575C55.6383 70.1575 55.3158 70.2552 55.0667 70.4506C54.8126 70.6509 54.6856 70.9196 54.6856 71.2519C54.6856 71.5645 54.7735 71.8235 54.9445 72.0189C55.1106 72.2094 55.394 72.3804 55.7751 72.5172C56.034 72.6101 56.2294 72.6931 56.3565 72.7664C56.4737 72.8348 56.5568 72.9081 56.6056 72.9814C56.6545 73.0547 56.6789 73.1573 56.6789 73.2794C56.6789 73.4651 56.6105 73.6019 56.4786 73.7045C56.3369 73.8119 56.1171 73.8657 55.8288 73.8657C55.6432 73.8657 55.4575 73.8461 55.2719 73.8071C55.0862 73.768 54.9103 73.7142 54.7491 73.6458L54.6318 73.597V74.2223L54.6807 74.2468C54.9445 74.3738 55.3256 74.4373 55.8093 74.4373C56.2636 74.4373 56.6301 74.3347 56.8988 74.1246C57.1724 73.9097 57.3141 73.6116 57.3141 73.2354C57.3189 72.9374 57.231 72.6931 57.06 72.5075Z" fill="white"/>
</svg>
